<svg width="40" height="40" viewBox="0 0 40 40" fill="none" xmlns="http://www.w3.org/2000/svg">
<path d="M25 16.6667C25 19.4282 22.7615 21.6667 20 21.6667C17.2385 21.6667 15 19.4282 15 16.6667C15 13.9052 17.2385 11.6667 20 11.6667C22.7615 11.6667 25 13.9052 25 16.6667Z" fill="#4B4A45"/>
<path fill-rule="evenodd" clip-rule="evenodd" d="M8.3335 16.6667C8.3335 25.4167 20.0002 35 20.0002 35C20.0002 35 31.6668 25.4167 31.6668 16.6667C31.6668 10.2167 26.4502 5 20.0002 5C13.5502 5 8.3335 10.2167 8.3335 16.6667ZM11.6668 16.6667C11.6668 12.0576 15.3911 8.33333 20.0002 8.33333C24.6092 8.33333 28.3335 12.0576 28.3335 16.6667C28.3335 19.7678 26.1407 23.5493 23.2758 26.9768C22.1192 28.3608 20.9555 29.567 20.0002 30.4957C19.0448 29.567 17.8812 28.3608 16.7245 26.9768C13.8596 23.5493 11.6668 19.7678 11.6668 16.6667Z" fill="#4B4A45"/>
</svg>
