<svg width="40" height="40" viewBox="0 0 40 40" fill="none" xmlns="http://www.w3.org/2000/svg">
<path d="M29.5116 20.4883C28.86 19.8367 27.8066 19.8367 27.155 20.4883L24.4983 23.145C23.2666 22.7783 20.9683 21.945 19.5116 20.4883C18.055 19.0317 17.2216 16.7333 16.855 15.5017L19.5116 12.845C20.1633 12.1933 20.1633 11.14 19.5116 10.4883L12.8449 3.82168C12.1932 3.17001 11.1399 3.17001 10.4882 3.82168L5.96824 8.34168C5.33491 8.97502 4.97824 9.84501 4.99157 10.7333C5.02991 13.1067 5.65824 21.35 12.1549 27.8467C18.6516 34.3433 26.895 34.97 29.27 35.01C29.2783 35.01 29.3083 35.01 29.3166 35.01C30.1966 35.01 31.0283 34.6633 31.6583 34.0333L36.1783 29.5133C36.83 28.8617 36.83 27.8083 36.1783 27.1567L29.5116 20.4883ZM29.3 31.675C27.22 31.64 20.1033 31.0817 14.5116 25.4883C8.90157 19.8783 8.35824 12.7367 8.3249 10.6983L11.6666 7.35668L15.9766 11.6667L13.8216 13.8217C13.4232 14.2183 13.2532 14.7917 13.3682 15.3417C13.4082 15.5333 14.3866 20.0783 17.1533 22.845C19.92 25.6117 24.465 26.59 24.6566 26.63C25.2116 26.7483 25.78 26.5767 26.1766 26.1783L28.3333 24.0233L32.6433 28.3333L29.3 31.675Z" fill="#4B4A45"/>
</svg>
