<svg width="40" height="40" viewBox="0 0 40 40" fill="none" xmlns="http://www.w3.org/2000/svg">
<path d="M37.432 10.3134C36.1493 10.8627 34.7707 11.2339 33.324 11.4008C34.8005 10.5461 35.9348 9.19274 36.4688 7.58001C35.0867 8.37151 33.556 8.94621 31.9267 9.25585C30.622 7.91366 28.7632 7.07507 26.7058 7.07507C22.7557 7.07507 19.5528 10.1671 19.5528 13.981C19.5528 14.5223 19.6162 15.0494 19.7382 15.5549C13.7935 15.2668 8.52292 12.5174 4.99515 8.33911C4.37942 9.35908 4.02668 10.5454 4.02668 11.8111C4.02668 14.2071 5.2894 16.3209 7.20872 17.5595C6.03632 17.5234 4.93327 17.2128 3.96898 16.6956C3.9683 16.7244 3.9683 16.7533 3.9683 16.7824C3.9683 20.1285 6.43388 22.9197 9.70598 23.5542C9.10582 23.7121 8.4739 23.7965 7.82157 23.7965C7.36067 23.7965 6.91258 23.7531 6.47577 23.6726C7.38602 26.4162 10.0276 28.413 13.1576 28.4685C10.7096 30.321 7.62545 31.4251 4.27422 31.4251C3.69687 31.4251 3.12752 31.3923 2.56795 31.3284C5.73338 33.2879 9.49319 34.4314 13.5325 34.4314C26.689 34.4314 33.8837 23.9081 33.8837 14.7818C33.8837 14.4824 33.8767 14.1846 33.8628 13.8883C35.2605 12.9146 36.4732 11.6983 37.432 10.3134Z" fill="#E5E5E5"/>
</svg>
