<svg width="40" height="40" viewBox="0 0 40 40" fill="none" xmlns="http://www.w3.org/2000/svg">
<path d="M19.9983 12.5093C15.7416 12.5093 12.2933 15.8404 12.2933 19.9486C12.2933 24.0585 15.7416 27.3896 19.9983 27.3896C24.2517 27.3896 27.7034 24.0585 27.7034 19.9486C27.7034 15.8404 24.2517 12.5093 19.9983 12.5093ZM19.9983 24.7827C17.2333 24.7827 14.9916 22.6183 14.9916 19.9503C14.9916 17.2806 17.2333 15.1178 19.9983 15.1178C22.7633 15.1178 25.0017 17.2806 25.0017 19.9503C25.0017 22.6183 22.7633 24.7827 19.9983 24.7827Z" fill="#E5E5E5"/>
<path d="M28.01 13.9705C29.0022 13.9705 29.8067 13.1938 29.8067 12.2357C29.8067 11.2777 29.0022 10.501 28.01 10.501C27.0177 10.501 26.2133 11.2777 26.2133 12.2357C26.2133 13.1938 27.0177 13.9705 28.01 13.9705Z" fill="#E5E5E5"/>
<path d="M34.2217 10.4721C33.44 8.52658 31.8483 6.98819 29.8333 6.2367C28.6683 5.81348 27.4367 5.58658 26.19 5.56083C24.585 5.49325 24.0767 5.47394 20.0067 5.47394C15.9366 5.47394 15.4149 5.47394 13.8232 5.56083C12.5799 5.58497 11.3482 5.81187 10.1832 6.2367C8.16658 6.98819 6.57492 8.52658 5.79492 10.4721C5.35658 11.5985 5.12158 12.7861 5.09658 13.9898C5.02492 15.5378 5.00325 16.0286 5.00325 19.9599C5.00325 23.8896 5.00325 24.39 5.09658 25.93C5.12158 27.1337 5.35658 28.3213 5.79492 29.4493C6.57658 31.3932 8.16825 32.9316 10.1849 33.6847C11.3449 34.1224 12.5766 34.3703 13.8266 34.4089C15.4316 34.4765 15.9399 34.4974 20.01 34.4974C24.08 34.4974 24.6017 34.4974 26.1933 34.4089C27.4383 34.3847 28.67 34.1562 29.8367 33.7346C31.8517 32.9799 33.4433 31.4431 34.225 29.4976C34.6633 28.3712 34.8983 27.1836 34.9233 25.9799C34.995 24.4319 35.0167 23.9411 35.0167 20.0098C35.0167 16.0786 35.0167 15.5797 34.9233 14.0397C34.9017 12.8199 34.6683 11.6114 34.2217 10.4721ZM32.1917 25.8109C32.18 26.7378 32.0067 27.6567 31.6733 28.5273C31.165 29.7937 30.13 30.7946 28.82 31.2806C27.9283 31.6008 26.9883 31.7682 26.0367 31.7811C24.4533 31.8519 24.0067 31.8696 19.9467 31.8696C15.8833 31.8696 15.4682 31.8696 13.8549 31.7811C12.9066 31.7698 11.9632 31.6008 11.0732 31.2806C9.75825 30.7962 8.71658 29.7953 8.20825 28.5273C7.88158 27.668 7.70492 26.7588 7.68992 25.8415C7.61825 24.3128 7.60158 23.8815 7.60158 19.9615C7.60158 16.0399 7.60158 15.6392 7.68992 14.0799C7.70158 13.153 7.87492 12.2358 8.20825 11.3652C8.71658 10.0955 9.75825 9.09624 11.0732 8.61026C11.9632 8.29164 12.9066 8.12267 13.8549 8.1098C15.4399 8.0406 15.8849 8.02129 19.9467 8.02129C24.0083 8.02129 24.425 8.02129 26.0367 8.1098C26.9883 8.12106 27.9283 8.29003 28.82 8.61026C30.13 9.09785 31.165 10.0988 31.6733 11.3652C32 12.2245 32.1767 13.1337 32.1917 14.0509C32.2633 15.5813 32.2817 16.0109 32.2817 19.9326C32.2817 23.8526 32.2817 24.2742 32.21 25.8126H32.1917V25.8109Z" fill="#E5E5E5"/>
</svg>
